<svg xmlns="http://www.w3.org/2000/svg" viewBox="0 0 120 120" role="img" aria-label="Promo-Domo dodo mascot (light)">
  <ellipse cx="60" cy="112" rx="32" ry="3" fill="#FCD34D" opacity=".25"/>
  <ellipse cx="58" cy="80" rx="32" ry="26" fill="#FEF3C7"/>
  <ellipse cx="58" cy="86" rx="22" ry="16" fill="#FFFBEB"/>
  <path d="M40 70 Q 30 78 36 92 Q 46 92 50 80 Z" fill="#FCD34D"/>
  <path d="M28 62 Q 18 56 16 48 Q 24 50 30 58 Z" fill="#FCD34D"/>
  <path d="M26 70 Q 12 70 10 62 Q 22 60 28 66 Z" fill="#FB7185"/>
  <path d="M28 78 Q 14 82 14 74 Q 22 70 30 74 Z" fill="#14B8A6"/>
  <rect x="50" y="102" width="5" height="10" fill="#FB7185"/>
  <rect x="66" y="102" width="5" height="10" fill="#FB7185"/>
  <ellipse cx="80" cy="50" rx="20" ry="22" fill="#FEF3C7"/>
  <circle cx="76" cy="30" r="3" fill="#FCD34D"/>
  <circle cx="82" cy="28" r="3" fill="#FCD34D"/>
  <circle cx="88" cy="32" r="2.5" fill="#FCD34D"/>
  <path d="M79 47 Q 84 41 89 47" stroke="#1F2937" stroke-width="2.4" fill="none" stroke-linecap="round"/>
  <ellipse cx="74" cy="58" rx="5.5" ry="3" fill="#FB7185" opacity=".7"/>
  <path d="M96 49 Q 118 50 113 68 Q 104 71 92 60 Z" fill="#FCD34D" stroke="#1F2937" stroke-width="1.5"/>
  <path d="M91 61 Q 96 67 101 61" stroke="#1F2937" stroke-width="1.6" fill="none" stroke-linecap="round"/>
</svg>
